<svg width="70" height="70" viewBox="0 0 70 70" fill="none" xmlns="http://www.w3.org/2000/svg">
<g clip-path="url(#clip0_1_2)">
<mask id="mask0_1_2" style="mask-type:luminance" maskUnits="userSpaceOnUse" x="0" y="0" width="70" height="70">
<path d="M70 0H0V70H70V0Z" fill="white"/>
</mask>
<g mask="url(#mask0_1_2)">
<mask id="mask1_1_2" style="mask-type:luminance" maskUnits="userSpaceOnUse" x="0" y="0" width="70" height="70">
<path d="M70 0H0V70H70V0Z" fill="white"/>
</mask>
<g mask="url(#mask1_1_2)">
<path d="M28.0957 42.8522H27.3913V45.8214H28.0981C28.2966 45.8271 28.4943 45.7929 28.6794 45.7208C28.8645 45.6488 29.033 45.5403 29.1755 45.4019C29.3179 45.2635 29.4313 45.0979 29.5087 44.915C29.586 44.732 29.6258 44.5354 29.6258 44.3368C29.6258 44.1382 29.586 43.9416 29.5087 43.7586C29.4313 43.5756 29.3179 43.4101 29.1755 43.2716C29.033 43.1332 28.8645 43.0248 28.6794 42.9527C28.4943 42.8807 28.2966 42.8465 28.0981 42.8522" fill="white"/>
<path d="M56.3755 39.0454L51.5194 33.4959L51.4549 9.59791C51.3913 7.8295 50.6435 6.1548 49.3696 4.92662C48.0957 3.69845 46.395 3.01268 44.6255 3.01378C42.8559 3.01488 41.1558 3.70278 39.8834 4.93255C38.611 6.16231 37.8655 7.83794 37.8041 9.60643L37.8418 20.0614C37.7134 19.9707 37.5844 19.8788 37.448 19.7966C36.0577 18.9579 34.4061 18.6639 32.8118 18.9712C31.2174 19.2785 29.7932 20.1654 28.8142 21.4608C27.3459 20.7703 25.6739 20.6488 24.1212 21.1197C22.5685 21.5907 21.2454 22.6207 20.4081 24.0106C20.3819 24.0538 20.362 24.0989 20.3371 24.1427C19.2297 23.7675 18.0421 23.6953 16.8974 23.9336C15.7527 24.1719 14.6926 24.712 13.8269 25.4979C12.9612 26.2837 12.3216 27.2869 11.974 28.4032C11.6265 29.5196 11.584 30.7086 11.8507 31.847L16.1918 56.507V64.3087C16.1918 64.9544 16.4482 65.5737 16.9048 66.0303C17.3614 66.4869 17.9809 66.7435 18.6266 66.7435H48.472C49.1178 66.7435 49.7372 66.4869 50.1938 66.0303C50.6504 65.5737 50.9068 64.9544 50.9068 64.3087V57.4481L57.6708 46.0916C57.7156 46.0148 57.7561 45.9355 57.7924 45.8543C58.3078 44.7154 58.4481 43.4422 58.193 42.2184C57.9379 40.9946 57.3004 39.8835 56.3729 39.0454M29.0615 57.2783L27.9773 55.9586C27.7186 55.6403 27.6122 55.5106 27.3888 55.205V56.5003C27.3888 56.8629 27.2448 57.2107 26.9884 57.4671C26.7321 57.7234 26.3842 57.8675 26.0216 57.8675C25.659 57.8675 25.3111 57.7234 25.0548 57.4671C24.7984 57.2107 24.6544 56.8629 24.6544 56.5003V50.7043C24.6544 50.3418 24.7984 49.994 25.0548 49.7376C25.3111 49.4813 25.659 49.3372 26.0216 49.3372C26.3842 49.3372 26.7321 49.4813 26.9884 49.7376C27.2448 49.994 27.3888 50.3418 27.3888 50.7043V51.9534C27.6 51.649 27.7186 51.4932 27.9773 51.1621L28.9197 49.9599C29.0353 49.8039 29.1818 49.6735 29.3501 49.5767C29.5184 49.48 29.7049 49.4191 29.8979 49.3979C30.0908 49.3766 30.2859 49.3955 30.4712 49.4532C30.6565 49.511 30.828 49.6064 30.9747 49.7336C31.1214 49.8607 31.2403 50.0167 31.3239 50.192C31.4075 50.3672 31.4539 50.5578 31.4603 50.7518C31.4668 50.9458 31.4331 51.1391 31.3614 51.3195C31.2896 51.4998 31.1813 51.6634 31.0433 51.8L29.535 53.5652L31.1607 55.4035C32.4445 56.8528 30.3695 58.8791 29.0639 57.2764M28.015 48.4564H26.1889C25.9861 48.4634 25.784 48.4288 25.5951 48.3547C25.4062 48.2806 25.2347 48.1687 25.0907 48.0257C24.9467 47.8827 24.8336 47.7118 24.7581 47.5234C24.6827 47.3351 24.6465 47.1333 24.652 46.9304V41.7431C24.6457 41.5402 24.681 41.3382 24.7558 41.1495C24.8305 40.9608 24.943 40.7894 25.0866 40.6459C25.2301 40.5024 25.4016 40.3898 25.5903 40.3151C25.7791 40.2404 25.9813 40.2052 26.1842 40.2116H28.0103C30.4256 40.2116 32.3582 41.8022 32.3582 44.335C32.3582 46.8677 30.4256 48.4589 28.0103 48.4589M40.7251 56.6087C40.7281 56.7802 40.6962 56.9506 40.6312 57.1094C40.5662 57.2681 40.4697 57.412 40.3473 57.5323C40.225 57.6525 40.0793 57.7465 39.9194 57.8087C39.7594 57.8708 39.5885 57.8997 39.4171 57.8937C39.1628 57.8966 38.9122 57.8356 38.6877 57.7161C38.4633 57.5967 38.2723 57.4226 38.1328 57.2101L36.4607 55.087C36.2135 54.7692 35.9306 54.3443 35.7066 53.9913V56.3482C35.7066 57.2557 35.2354 57.8918 34.34 57.8918C33.4447 57.8918 32.9729 57.2557 32.9729 56.3482V50.5984C32.9704 50.4261 33.0032 50.2551 33.0692 50.0958C33.1351 49.9366 33.2327 49.7925 33.3563 49.6723C33.4798 49.5521 33.6265 49.4584 33.7875 49.397C33.9485 49.3355 34.1203 49.3075 34.2925 49.3147C34.5451 49.3118 34.7942 49.3729 35.0168 49.4923C35.2394 49.6118 35.4282 49.7856 35.5655 49.9977L37.1443 52.1183C37.4512 52.5178 37.7346 52.9349 37.9928 53.3674V50.8456C37.9713 50.6533 37.9907 50.4586 38.0496 50.2743C38.1084 50.09 38.2053 49.9202 38.3343 49.776C38.4633 49.6318 38.6214 49.5165 38.798 49.4375C38.9746 49.3585 39.1659 49.3177 39.3594 49.3177C39.5529 49.3177 39.7442 49.3585 39.9208 49.4375C40.0975 49.5165 40.2552 49.6318 40.3842 49.776C40.5132 49.9202 40.6104 50.09 40.6692 50.2743C40.7281 50.4586 40.7475 50.6533 40.726 50.8456L40.7251 56.6087ZM40.7976 47.3413C40.8005 47.5128 40.7687 47.6831 40.7037 47.8418C40.6387 48.0005 40.542 48.1443 40.4196 48.2645C40.2972 48.3846 40.1515 48.4786 39.9916 48.5407C39.8317 48.6028 39.661 48.6317 39.4896 48.6256C39.2353 48.6286 38.9844 48.5676 38.7599 48.4481C38.5355 48.3287 38.3448 48.1546 38.2053 47.9421L36.5326 45.822C36.2855 45.503 36.0023 45.0794 35.7783 44.7263V47.0826C35.7783 47.9896 35.3074 48.6263 34.412 48.6263C33.5166 48.6263 33.0454 47.9896 33.0454 47.0826V41.3304C33.0427 41.158 33.0752 40.9869 33.1411 40.8276C33.2069 40.6682 33.3046 40.524 33.4282 40.4037C33.5518 40.2835 33.6987 40.1897 33.8597 40.1282C34.0208 40.0667 34.1927 40.0388 34.365 40.0461C34.6174 40.0432 34.8664 40.1043 35.0887 40.2237C35.3111 40.3431 35.4996 40.517 35.6365 40.729L37.2156 42.8503C37.5226 43.2495 37.806 43.6664 38.0641 44.0988V41.5782C38.0422 41.3856 38.061 41.1906 38.1197 41.006C38.1784 40.8213 38.2754 40.6511 38.4045 40.5065C38.5335 40.3619 38.6918 40.2463 38.8687 40.1671C39.0456 40.0879 39.237 40.0469 39.4307 40.0469C39.6245 40.0469 39.8162 40.0879 39.9931 40.1671C40.1699 40.2463 40.328 40.3619 40.457 40.5065C40.5861 40.6511 40.6834 40.8213 40.742 41.006C40.8007 41.1906 40.8195 41.3856 40.7976 41.5782V47.3413ZM41.7553 57.2265H41.6444V57.6903C41.6477 57.7079 41.6471 57.7261 41.6426 57.7434C41.6381 57.7607 41.63 57.7769 41.6185 57.7907C41.6071 57.8045 41.5928 57.8156 41.5766 57.8232C41.5604 57.8308 41.5428 57.8348 41.5249 57.8348C41.507 57.8348 41.4891 57.8308 41.4729 57.8232C41.4567 57.8156 41.4424 57.8045 41.431 57.7907C41.4196 57.7769 41.4114 57.7607 41.4069 57.7434C41.4024 57.7261 41.4018 57.7079 41.4051 57.6903V57.2265H41.2964C41.2807 57.2277 41.265 57.2256 41.2503 57.2204C41.2355 57.2152 41.2219 57.207 41.2105 57.1964C41.199 57.1857 41.1897 57.1728 41.1834 57.1585C41.1772 57.1441 41.1742 57.1286 41.1742 57.113C41.1742 57.0973 41.1772 57.0819 41.1834 57.0675C41.1897 57.0532 41.199 57.0403 41.2105 57.0296C41.2219 57.019 41.2355 57.0108 41.2503 57.0056C41.265 57.0004 41.2807 56.9983 41.2964 56.9995H41.7553C41.7709 56.9983 41.7866 57.0004 41.8013 57.0056C41.8161 57.0108 41.8294 57.019 41.8409 57.0296C41.8523 57.0403 41.8616 57.0532 41.8679 57.0675C41.8741 57.0819 41.8774 57.0973 41.8774 57.113C41.8774 57.1286 41.8741 57.1441 41.8679 57.1585C41.8616 57.1728 41.8523 57.1857 41.8409 57.1964C41.8294 57.207 41.8161 57.2152 41.8013 57.2204C41.7866 57.2256 41.7709 57.2277 41.7553 57.2265ZM42.6748 57.8109C42.6489 57.8127 42.6234 57.8046 42.6032 57.7882C42.583 57.7718 42.5697 57.7484 42.5661 57.7226L42.5313 57.5077L42.5191 57.4134L42.5001 57.5077L42.443 57.7116C42.4364 57.738 42.4213 57.7613 42.3999 57.778C42.3785 57.7947 42.3522 57.8038 42.325 57.8038C42.2979 57.8038 42.2715 57.7947 42.2501 57.778C42.2287 57.7613 42.2133 57.738 42.2067 57.7116L42.1503 57.5077L42.1306 57.4134L42.119 57.5077L42.084 57.7226C42.0805 57.7484 42.0671 57.7719 42.0468 57.7883C42.0266 57.8048 42.0009 57.8128 41.9749 57.8109C41.9605 57.8115 41.9462 57.8091 41.9327 57.8038C41.9192 57.7985 41.9069 57.7905 41.8967 57.7803C41.8865 57.77 41.8784 57.7578 41.8732 57.7443C41.8681 57.7308 41.8657 57.7163 41.8664 57.7019C41.8652 57.6916 41.8652 57.6812 41.8664 57.6709L41.9797 57.0938C41.9829 57.0619 41.9986 57.0326 42.0233 57.0122C42.0481 56.9918 42.08 56.982 42.1119 56.9849C42.1421 56.9841 42.1717 56.9942 42.1951 57.0133C42.2186 57.0323 42.2343 57.0592 42.2397 57.089L42.3134 57.3683L42.3229 57.4134L42.3316 57.3683L42.4053 57.089C42.4107 57.0593 42.4267 57.0325 42.4501 57.0134C42.4736 56.9943 42.5029 56.9842 42.5331 56.9849C42.565 56.982 42.5969 56.9918 42.6216 57.0122C42.6464 57.0326 42.6618 57.0619 42.665 57.0938L42.7789 57.6709C42.7799 57.6812 42.7799 57.6916 42.7789 57.7019C42.7795 57.7164 42.7773 57.7308 42.772 57.7443C42.7668 57.7578 42.7588 57.7701 42.7485 57.7803C42.7383 57.7905 42.7258 57.7985 42.7123 57.8038C42.6988 57.8091 42.6845 57.8115 42.6701 57.8109M43.9107 51.5693C43.8294 52.0227 43.623 52.4444 43.3147 52.7867C43.2073 52.8802 43.0809 52.9496 42.9444 52.9905C42.808 53.0313 42.6644 53.0426 42.5233 53.0235H42.5117C42.3701 53.0054 42.2342 52.9572 42.1128 52.8821C41.9914 52.8071 41.8875 52.7069 41.8082 52.5883C41.5998 52.1768 41.5109 51.7152 41.5514 51.2558C41.5186 50.8306 41.5754 50.4032 41.7181 50.0013C41.8388 49.7711 42.0273 49.5835 42.2581 49.4639C42.4889 49.3444 42.7506 49.2986 43.0083 49.3328C43.266 49.367 43.5071 49.4795 43.6987 49.6552C43.8904 49.8308 44.0233 50.0611 44.0798 50.3148C44.1119 50.7404 44.0549 51.1681 43.9124 51.5705" fill="white"/>
</g>
</g>
</g>
<defs>
<clipPath id="clip0_1_2">
<rect width="70" height="70" fill="white"/>
</clipPath>
</defs>
</svg>
